# File created by Blade
# Date/Time:  Tue Jan 27 17:21:46 2015
#---------------------------------------------------------
:version 1.10
:name HOM
:units
  mass 1.0
  length 1.000000
  angle deg
:documentation
     Acclaim Skeleton File
:root
   axis xyz
   order TX TY TZ RX RY RZ
   position 0.000000 0.000000 0.000000
   orientation 0 0 0
:bonedata
   begin
      id 1
      name Spine_dum
      direction 0.000000 1.000000 0.000000
      length 7.539951
      axis 0.0 0.0 0.0 xyz
   end
   begin
      id 2
      name LeftUpLeg_dum
      direction 1.000000 0.000000 0.000000
      length 3.345476
      axis 0.0 0.0 0.0 xyz
   end
   begin
      id 3
      name RightUpLeg_dum
      direction -1.000000 0.000000 0.000000
      length 3.345476
      axis 0.0 0.0 0.0 xyz
   end
   begin
      id 4
      name Spine
      direction 0.000000 1.000000 0.000000
      length 0.000000
      axis 0.0 0.0 0.0 xyz
      dof rx ry rz
   end
   begin
      id 5
      name Spine_dum1
      direction 0.000000 1.000000 0.000000
      length 15.093809
      axis 0.0 0.0 0.0 xyz
   end
   begin
      id 6
      name Spine_dum2
      direction 0.000000 1.000000 0.000000
      length 9.738928
      axis 0.0 0.0 0.0 xyz
   end
   begin
      id 7
      name Spine_dum3
      direction 0.000000 1.000000 0.000000
      length 9.738928
      axis 0.0 0.0 0.0 xyz
   end
   begin
      id 8
      name Head
      direction 0.000000 1.000000 0.000000
      length 4.527550
      axis 0.0 0.0 0.0 xyz
      dof rx ry rz
   end
   begin
      id 9
      name LeftShoulder
      direction 1.000000 0.000000 0.000000
      length 7.084015
      axis 0.0 0.0 -90.0 xyz
      dof rx ry rz
   end
   begin
      id 10
      name LeftArm
      direction 1.000000 0.000000 0.000000
      length 10.259319
      axis 0.0 0.0 -90.0 xyz
      dof rx ry rz
   end
   begin
      id 11
      name LeftForeArm
      direction 1.000000 0.000000 0.000000
      length 9.896984
      axis 0.0 0.0 -90.0 xyz
      dof ry rz rx
   end
   begin
      id 12
      name LeftHand
      direction 0.000000 0.000000 0.000000
      length 0.000000
      axis 0.0 0.0 -90.0 xyz
      dof rx ry rz
   end
   begin
      id 13
      name LeftHand_dum1
      direction 0.000000 0.000000 0.000000
      length 0.000000
      axis 0.0 0.0 -90.0 xyz
   end
   begin
      id 14
      name LeftHand_dum2
      direction 1.000000 0.000000 0.000000
      length 3.937000
      axis 0.0 0.0 -90.0 xyz
   end
   begin
      id 15
      name LeftHandThumb1
      direction 0.000000 0.000000 1.000000
      length 3.937000
      axis 0.0 0.0 -90.0 xyz
      dof rx rz ry
   end
   begin
      id 16
      name RightShoulder
      direction -1.000000 0.000000 0.000000
      length 7.084015
      axis 0.0 0.0 90.0 xyz
      dof rx ry rz
   end
   begin
      id 17
      name RightArm
      direction -1.000000 0.000000 0.000000
      length 10.259319
      axis 0.0 0.0 90.0 xyz
      dof rx ry rz
   end
   begin
      id 18
      name RightForeArm
      direction -1.000000 0.000000 0.000000
      length 9.896984
      axis 0.0 0.0 90.0 xyz
      dof ry rz rx
   end
   begin
      id 19
      name RightHand
      direction 0.000000 0.000000 0.000000
      length 0.000000
      axis 0.0 0.0 90.0 xyz
      dof rx ry rz
   end
   begin
      id 20
      name RightHand_dum1
      direction 0.000000 0.000000 0.000000
      length 0.000000
      axis 0.0 0.0 90.0 xyz
   end
   begin
      id 21
      name RightHand_dum2
      direction -1.000000 0.000000 0.000000
      length 3.937000
      axis 0.0 0.0 90.0 xyz
   end
   begin
      id 22
      name RightHandThumb1
      direction 0.000000 0.000000 1.000000
      length 3.937000
      axis 0.0 0.0 90.0 xyz
      dof rx rz ry
   end
   begin
      id 23
      name LeftUpLeg
      direction 0.000000 -1.000000 0.000000
      length 19.114733
      axis 0.0 0.0 0.0 xyz
      dof rx ry rz
   end
   begin
      id 24
      name LeftLeg
      direction 0.000000 -1.000000 0.000000
      length 16.045604
      axis 0.0 0.0 0.0 xyz
      dof rx ry rz
   end
   begin
      id 25
      name LeftFoot
      direction 0.000000 -0.258819 0.965926
      length 5.543155
      axis 15.0 0.0 0.0 xyz
      dof rx ry rz
   end
   begin
      id 26
      name LeftToeBase
      direction 0.000000 0.000000 1.000000
      length 2.952750
      axis 0.0 0.0 0.0 xyz
      dof rx ry rz
   end
   begin
      id 27
      name RightUpLeg
      direction 0.000000 -1.000000 0.000000
      length 19.114733
      axis 0.0 0.0 0.0 xyz
      dof rx ry rz
   end
   begin
      id 28
      name RightLeg
      direction 0.000000 -1.000000 0.000000
      length 16.045604
      axis 0.0 0.0 0.0 xyz
      dof rx ry rz
   end
   begin
      id 29
      name RightFoot
      direction 0.000000 -0.258819 0.965926
      length 5.543155
      axis 15.0 0.0 0.0 xyz
      dof rx ry rz
   end
   begin
      id 30
      name RightToeBase
      direction 0.000000 0.000000 1.000000
      length 2.952750
      axis 0.0 0.0 0.0 xyz
      dof rx ry rz
   end
:hierarchy
   begin
      root Spine_dum LeftUpLeg_dum RightUpLeg_dum
      Spine_dum Spine
      LeftUpLeg_dum LeftUpLeg
      RightUpLeg_dum RightUpLeg
      Spine Spine_dum1 Spine_dum2 Spine_dum3
      Spine_dum1 Head
      Spine_dum2 LeftShoulder
      Spine_dum3 RightShoulder
      LeftShoulder LeftArm
      LeftArm LeftForeArm
      LeftForeArm LeftHand
      LeftHand LeftHand_dum1 LeftHand_dum2
      LeftHand_dum1 LeftHandThumb1
      RightShoulder RightArm
      RightArm RightForeArm
      RightForeArm RightHand
      RightHand RightHand_dum1 RightHand_dum2
      RightHand_dum1 RightHandThumb1
      LeftUpLeg LeftLeg
      LeftLeg LeftFoot
      LeftFoot LeftToeBase
      RightUpLeg RightLeg
      RightLeg RightFoot
      RightFoot RightToeBase
   end

# File created by Blade
# Date/Time:  Tue Jan 27 17:21:37 2015
# Frame Rate: 120.000 fps
#------------------------------------------------------
:FULLY-SPECIFIED
:DEGREES
432
root -4.215955 36.548201 0.248867 4.218157 -54.515115 -3.736347
Spine -2.609991 19.694673 -1.965135
Head 14.371132 10.390852 3.280629
LeftShoulder -9.545004 -7.452202 10.752784
LeftArm -25.332738 -30.370411 -26.198254
LeftForeArm 10.825654 0.000000 72.939519
LeftHand -18.205443 -0.000000 42.188818
LeftHandThumb1 -26.253704 0.000000 33.147579
RightShoulder -4.649257 -19.078522 1.176027
RightArm 32.302116 -32.470092 47.464810
RightForeArm 171.202391 -0.000000 28.712752
RightHand 0.957295 -0.000000 -3.722504
RightHandThumb1 -24.326973 -0.000000 -32.862282
LeftUpLeg -42.473352 -4.469436 9.309454
LeftLeg 103.348996 -0.000000 -0.000000
LeftFoot -8.320287 -4.080683 -20.651709
LeftToeBase 12.356628 -0.000000 -0.000000
RightUpLeg -3.919747 -1.859067 8.053481
RightLeg 16.999553 -0.000000 -0.000000
RightFoot -17.074262 5.989843 -6.604338
RightToeBase 2.103001 -0.000000 -0.000000
433
root -4.217678 36.547262 0.251910 4.222865 -54.555814 -3.741524
Spine -2.615223 19.693009 -1.939065
Head 14.373096 10.396258 3.279801
LeftShoulder -9.536405 -7.434911 10.736767
LeftArm -25.299837 -30.307359 -26.243208
LeftForeArm 10.985171 0.000000 72.928025
LeftHand -18.420759 -0.000000 42.347399
LeftHandThumb1 -26.253704 0.000000 33.147579
RightShoulder -4.645839 -19.078089 1.157443
RightArm 32.278506 -32.462161 47.501248
RightForeArm 171.235755 -0.000000 28.647005
RightHand 0.958969 0.000000 -3.725672
RightHandThumb1 -24.326973 -0.000000 -32.862282
LeftUpLeg -42.473488 -4.441704 9.305444
LeftLeg 103.360015 -0.000000 -0.000000
LeftFoot -8.337154 -4.101817 -20.650253
LeftToeBase 12.433201 -0.000000 -0.000000
RightUpLeg -3.920991 -1.828525 8.054673
RightLeg 17.015222 -0.000000 -0.000000
RightFoot -17.074200 5.972306 -6.623504
RightToeBase 2.062213 -0.000000 -0.000000
434
root -4.219517 36.546063 0.254071 4.236041 -54.607285 -3.755146
Spine -2.622844 19.699125 -1.913697
Head 14.398124 10.429151 3.322504
LeftShoulder -9.529978 -7.415634 10.720537
LeftArm -25.285307 -30.243134 -26.263974
LeftForeArm 10.938644 -0.000000 72.922886
LeftHand -18.380671 -0.000000 42.469186
LeftHandThumb1 -26.253704 0.000000 33.147579
RightShoulder -4.640524 -19.070366 1.146584
RightArm 32.238379 -32.464529 47.526912
RightForeArm 171.279579 0.000000 28.615575
RightHand 0.980733 -0.000000 -3.731314
RightHandThumb1 -24.326973 -0.000000 -32.862282
LeftUpLeg -42.477298 -4.409851 9.310689
LeftLeg 103.370220 -0.000000 -0.000000
LeftFoot -8.314860 -4.140073 -20.694309
LeftToeBase 12.409569 -0.000000 -0.000000
RightUpLeg -3.922896 -1.776122 8.061304
RightLeg 17.028555 -0.000000 -0.000000
RightFoot -17.070580 5.949167 -6.631483
RightToeBase 1.991998 -0.000000 -0.000000
435
root -4.221270 36.545032 0.256859 4.241349 -54.637925 -3.761414
Spine -2.624651 19.687711 -1.891412
Head 14.375334 10.442518 3.316689
LeftShoulder -9.538331 -7.453691 10.730388
LeftArm -25.278230 -30.171437 -26.293900
LeftForeArm 10.942863 -0.000000 72.893557
LeftHand -18.356290 0.000000 42.368061
LeftHandThumb1 -26.253704 0.000000 33.147579
RightShoulder -4.649350 -19.077254 1.141195
RightArm 32.233225 -32.449536 47.547106
RightForeArm 171.288451 -0.000000 28.553364
RightHand 0.917314 0.000000 -3.766983
RightHandThumb1 -24.326973 -0.000000 -32.862282
LeftUpLeg -42.482928 -4.391260 9.307942
LeftLeg 103.376441 -0.000000 -0.000000
LeftFoot -8.324983 -4.157674 -20.703567
LeftToeBase 12.460423 -0.000000 -0.000000
RightUpLeg -3.920569 -1.752719 8.063252
RightLeg 17.037264 -0.000000 -0.000000
RightFoot -17.089577 5.934681 -6.649892
RightToeBase 2.034685 -0.000000 -0.000000
436
root -4.223142 36.544380 0.259403 4.254279 -54.669945 -3.781922
Spine -2.619418 19.664918 -1.848742
Head 14.376016 10.475653 3.313987
LeftShoulder -9.582228 -7.478735 10.736984
LeftArm -25.211043 -30.095189 -26.369980
LeftForeArm 11.005301 -0.000000 72.851426
LeftHand -18.452165 -0.000000 42.360311
LeftHandThumb1 -26.253704 0.000000 33.147579
RightShoulder -4.641508 -19.081626 1.131943
RightArm 32.219309 -32.439353 47.557568
RightForeArm 171.270565 -0.000000 28.520934
RightHand 0.934583 -0.000000 -3.741434
RightHandThumb1 -24.326973 -0.000000 -32.862282
LeftUpLeg -42.480743 -4.366146 9.313643
LeftLeg 103.374080 -0.000000 -0.000000
LeftFoot -8.334294 -4.177061 -20.734350
LeftToeBase 12.485815 -0.000000 -0.000000
RightUpLeg -3.917743 -1.737468 8.071885
RightLeg 17.050923 -0.000000 -0.000000
RightFoot -17.084827 5.920592 -6.692575
RightToeBase 1.989527 -0.000000 -0.000000
437
root -4.226003 36.543797 0.261968 4.254580 -54.699056 -3.785255
Spine -2.618537 19.652682 -1.830467
Head 14.373970 10.478423 3.330830
LeftShoulder -9.588415 -7.504527 10.736804
LeftArm -25.194876 -30.033301 -26.391229
LeftForeArm 10.968495 0.000000 72.815274
LeftHand -18.407317 -0.000000 42.421265
LeftHandThumb1 -26.253704 0.000000 33.147579
RightShoulder -4.651288 -19.089391 1.136270
RightArm 32.214331 -32.428035 47.568749
RightForeArm 171.229943 -0.000000 28.491632
RightHand 0.943713 -0.000000 -3.707617
RightHandThumb1 -24.326973 -0.000000 -32.862282
LeftUpLeg -42.480041 -4.341572 9.307086
LeftLeg 103.368345 -0.000000 -0.000000
LeftFoot -8.340974 -4.166752 -20.719508
LeftToeBase 12.457194 -0.000000 -0.000000
RightUpLeg -3.913637 -1.724259 8.072998
RightLeg 17.063367 -0.000000 -0.000000
RightFoot -17.079327 5.916273 -6.705183
RightToeBase 1.893453 -0.000000 -0.000000
438
root -4.229713 36.543858 0.263731 4.261575 -54.725206 -3.800461
Spine -2.609136 19.634519 -1.801861
Head 14.350682 10.480538 3.332926
LeftShoulder -9.609559 -7.484679 10.730154
LeftArm -25.131345 -30.036655 -26.435224
LeftForeArm 10.977934 -0.000000 72.758664
LeftHand -18.363464 -0.000000 42.560467
LeftHandThumb1 -26.253704 0.000000 33.147579
RightShoulder -4.668012 -19.088138 1.145671
RightArm 32.215454 -32.432921 47.564242
RightForeArm 171.225155 -0.000000 28.475515
RightHand 0.981889 -0.000000 -3.698048
RightHandThumb1 -24.326973 -0.000000 -32.862282
LeftUpLeg -42.474101 -4.317415 9.313303
LeftLeg 103.355554 -0.000000 -0.000000
LeftFoot -8.339639 -4.168566 -20.706722
LeftToeBase 12.453585 -0.000000 -0.000000
RightUpLeg -3.908526 -1.736942 8.086544
RightLeg 17.081414 -0.000000 -0.000000
RightFoot -17.080406 5.895163 -6.760057
RightToeBase 1.844434 -0.000000 -0.000000
439
root -4.232810 36.543506 0.266040 4.267508 -54.749216 -3.820166
Spine -2.594726 19.609074 -1.761839
Head 14.344105 10.512247 3.333213
LeftShoulder -9.616895 -7.474661 10.720467
LeftArm -25.091652 -29.988938 -26.483059
LeftForeArm 11.113556 -0.000000 72.720735
LeftHand -18.560692 -0.000000 42.626946
LeftHandThumb1 -26.253704 0.000000 33.147579
RightShoulder -4.670658 -19.085798 1.143857
RightArm 32.196660 -32.428064 47.572707
RightForeArm 171.214191 0.000000 28.476418
RightHand 0.950819 -0.000000 -3.679459
RightHandThumb1 -24.326973 -0.000000 -32.862282
LeftUpLeg -42.466447 -4.297243 9.316620
LeftLeg 103.341602 -0.000000 -0.000000
LeftFoot -8.339739 -4.148854 -20.691196
LeftToeBase 12.414716 -0.000000 -0.000000
RightUpLeg -3.901519 -1.732453 8.096021
RightLeg 17.103279 -0.000000 -0.000000
RightFoot -17.093749 5.887904 -6.806493
RightToeBase 1.853046 -0.000000 -0.000000
440
root -4.235615 36.543664 0.268377 4.274280 -54.790461 -3.839839
Spine -2.582082 19.614929 -1.724871
Head 14.337995 10.515194 3.331998
LeftShoulder -9.618123 -7.465708 10.706938
LeftArm -25.060263 -29.958078 -26.503049
LeftForeArm 11.191323 -0.000000 72.659491
LeftHand -18.599038 0.000000 42.794780
LeftHandThumb1 -26.253704 0.000000 33.147579
RightShoulder -4.680767 -19.099133 1.147536
RightArm 32.186166 -32.401816 47.584610
RightForeArm 171.221240 -0.000000 28.478332
RightHand 0.950020 0.000000 -3.693550
RightHandThumb1 -24.326973 -0.000000 -32.862282
LeftUpLeg -42.458461 -4.255243 9.318420
LeftLeg 103.327531 -0.000000 -0.000000
LeftFoot -8.338634 -4.118084 -20.642815
LeftToeBase 12.449189 -0.000000 -0.000000
RightUpLeg -3.897653 -1.802830 8.094177
RightLeg 17.130437 -0.000000 -0.000000
RightFoot -17.100814 6.004134 -6.834475
RightToeBase 1.835416 -0.000000 -0.000000
441
root -4.238912 36.542727 0.269944 4.272636 -54.804111 -3.844059
Spine -2.573876 19.588758 -1.709840
Head 14.313766 10.510345 3.342214
LeftShoulder -9.617066 -7.447867 10.718493
LeftArm -25.061861 -29.964352 -26.527141
LeftForeArm 11.025929 -0.000000 72.640530
LeftHand -18.420062 0.000000 42.594151
LeftHandThumb1 -26.253704 0.000000 33.147579
RightShoulder -4.693418 -19.093130 1.146410
RightArm 32.184143 -32.413993 47.596077
RightForeArm 171.226591 -0.000000 28.468341
RightHand 0.932229 0.000000 -3.666591
RightHandThumb1 -24.326973 -0.000000 -32.862282
LeftUpLeg -42.461301 -4.240803 9.317478
LeftLeg 103.312008 -0.000000 -0.000000
LeftFoot -8.324003 -4.117169 -20.667022
LeftToeBase 12.417606 -0.000000 -0.000000
RightUpLeg -3.890473 -1.818385 8.100159
RightLeg 17.134540 -0.000000 -0.000000
RightFoot -17.097379 5.985892 -6.891825
RightToeBase 1.739961 -0.000000 -0.000000
442
root -4.242583 36.542648 0.272287 4.269408 -54.815564 -3.843380
Spine -2.578545 19.569081 -1.699839
Head 14.336180 10.499744 3.388425
LeftShoulder -9.600367 -7.438395 10.719432
LeftArm -25.061127 -29.945860 -26.540587
LeftForeArm 11.045648 -0.000000 72.604297
LeftHand -18.439818 -0.000000 42.520789
LeftHandThumb1 -26.253704 0.000000 33.147579
RightShoulder -4.714483 -19.101647 1.159207
RightArm 32.175009 -32.410298 47.603245
RightForeArm 171.275711 0.000000 28.480897
RightHand 0.955153 -0.000000 -3.726382
RightHandThumb1 -24.326973 -0.000000 -32.862282
LeftUpLeg -42.463401 -4.225909 9.311375
LeftLeg 103.291178 -0.000000 -0.000000
LeftFoot -8.327917 -4.116248 -20.669035
LeftToeBase 12.353946 -0.000000 -0.000000
RightUpLeg -3.890529 -1.825032 8.097635
RightLeg 17.154263 -0.000000 -0.000000
RightFoot -17.091238 6.006910 -6.888010
RightToeBase 1.693863 -0.000000 -0.000000
443
root -4.246288 36.542916 0.274926 4.269115 -54.836611 -3.845877
Spine -2.577636 19.549602 -1.685114
Head 14.313520 10.484676 3.398090
LeftShoulder -9.596129 -7.434139 10.714010
LeftArm -25.074903 -29.904217 -26.538296
LeftForeArm 11.142541 -0.000000 72.567776
LeftHand -18.432535 -0.000000 42.630008
LeftHandThumb1 -26.253704 0.000000 33.147579
RightShoulder -4.727208 -19.098554 1.161353
RightArm 32.171692 -32.431303 47.607661
RightForeArm 171.314344 -0.000000 28.488473
RightHand 0.934058 -0.000000 -3.681183
RightHandThumb1 -24.326973 -0.000000 -32.862282
LeftUpLeg -42.460880 -4.203149 9.305927
LeftLeg 103.269023 -0.000000 -0.000000
LeftFoot -8.340942 -4.127899 -20.667903
LeftToeBase 12.389395 -0.000000 -0.000000
RightUpLeg -3.886697 -1.831854 8.097086
RightLeg 17.165255 -0.000000 -0.000000
RightFoot -17.092624 6.015247 -6.910721
RightToeBase 1.651168 -0.000000 -0.000000
